<svg xmlns="http://www.w3.org/2000/svg" width="1300mm" height="1000mm" version="1.0" viewBox="0 0 130000 100000" shape-rendering="geometricPrecision" text-rendering="geometricPrecision" image-rendering="optimizeQuality" fill-rule="evenodd" clip-rule="evenodd"><defs><style>.fil1{fill:#2b2a29}</style></defs><g id="Layer_x0020_1"><g id="_2349835916144"><path d="M51244 10748c17148 0 31049 13399 31049 29928S62338 82262 49898 95488c-9526-12330-29703-38283-29703-54812s13900-29928 31049-29928z" fill="#fefefe"/><path class="fil1" d="M51244 12462c16309 0 29530 12744 29530 28465S61796 80479 49964 93059c-9060-11727-28251-36411-28251-52132s13221-28465 29531-28465z"/><path d="M51244 13804c15603 0 28251 12191 28251 27231S61339 78874 50020 90908c-8668-11219-27027-34833-27027-49873s12648-27231 28251-27231z" fill="#ef7f1a"/><path class="fil1" d="M56165 48989l2362-3c-65 3944-4 7943-4 11895 0 2008-335 3803 1375 4519 850 355 1710 138 2295-337 596-485 798-1182 798-2240V33117c0-1956 67-4032-8-5973-156-4046-5052-4698-6477-1576-570 1248-364 3971-364 5535 0 1475-69 17208 23 17886zm-14523-8851c117 451 39 19308 39 20743 0 896-98 2557 154 3304 636 1884 3406 2003 4134 42 280-755 177-2376 177-3274 0-1443-86-20337 42-20817 1197-90 1986-707 2414-1473 566-1015 396-2192 396-3460v-7768c0-806 208-3197-228-3631-388-388-1102-216-1274 302-123 367-60 8986-49 9737l-2861-6 3-8200c0-831 206-2050-742-2046-983 4-755 1191-755 2046l3 8171-2765 33c11-788 77-9353-55-9745-159-476-791-678-1213-365-430 318-325 1033-324 1618v9854c0 1201-144 2552 403 3483 475 810 1209 1351 2501 1452z"/></g></g></svg>